<?xml version="1.0" standalone="yes"?>

<svg version="1.1" viewBox="0.0 0.0 371.65616797900265 325.0288713910761" fill="none" stroke="none" stroke-linecap="square" stroke-miterlimit="10" xmlns="http://www.w3.org/2000/svg" xmlns:xlink="http://www.w3.org/1999/xlink"><clipPath id="p.0"><path d="m0 0l371.65616 0l0 325.02887l-371.65616 0l0 -325.02887z" clip-rule="nonzero"></path></clipPath><g clip-path="url(#p.0)"><path fill="#000000" fill-opacity="0.0" d="m0 0l371.65616 0l0 325.02887l-371.65616 0z" fill-rule="evenodd"></path><path fill="#741b47" d="m97.81102 162.51443l0 0c0 -55.228477 42.332016 -100.0 94.55118 -100.0l0 0c25.076538 0 49.126007 10.535683 66.8578 29.289322c17.731781 18.75364 27.69339 44.189026 27.69339 70.71068l0 0c0 55.22847 -42.332016 100.0 -94.55119 100.0l0 0c-52.219162 0 -94.55118 -44.77153 -94.55118 -100.0z" fill-rule="evenodd"></path><path fill="#000000" fill-opacity="0.0" d="m134.62993 162.59317l0 0c0 -53.02803 25.84761 -96.01574 57.73227 -96.01574l0 0c15.311554 0 29.995987 10.115913 40.82289 28.12236c10.826904 18.006447 16.909393 42.42843 16.909393 67.89338l0 0c0 53.028046 -25.84761 96.01575 -57.732285 96.01575l0 0c-31.884659 0 -57.73227 -42.9877 -57.73227 -96.01575z" fill-rule="evenodd"></path><path stroke="#ffffff" stroke-width="8.0" stroke-linejoin="round" stroke-linecap="butt" d="m134.62993 162.59317l0 0c0 -53.02803 25.84761 -96.01574 57.73227 -96.01574l0 0c15.311554 0 29.995987 10.115913 40.82289 28.12236c10.826904 18.006447 16.909393 42.42843 16.909393 67.89338l0 0c0 53.028046 -25.84761 96.01575 -57.732285 96.01575l0 0c-31.884659 0 -57.73227 -42.9877 -57.73227 -96.01575z" fill-rule="evenodd"></path></g></svg>

