<?xml version="1.0" standalone="yes"?>

<svg version="1.1" viewBox="0.0 0.0 128.3989501312336 225.26246719160105" fill="none" stroke="none" stroke-linecap="square" stroke-miterlimit="10" xmlns="http://www.w3.org/2000/svg" xmlns:xlink="http://www.w3.org/1999/xlink"><clipPath id="p.0"><path d="m0 0l128.39896 0l0 225.26247l-128.39896 0l0 -225.26247z" clip-rule="nonzero"></path></clipPath><g clip-path="url(#p.0)"><path fill="#000000" fill-opacity="0.0" d="m0 0l128.39896 0l0 225.26247l-128.39896 0z" fill-rule="evenodd"></path><path fill="#7c1f44" fill-opacity="0.8423" d="m101.221886 31.208605l0 0c20.25624 20.256239 20.101128 53.253204 -0.34645844 73.70079q-37.02362 37.02362 -37.370075 110.72441q0.34645462 -73.70079 -36.33071 -110.37795l0 0c-20.256239 -20.25624 -20.101126 -53.25321 0.34645653 -73.70079l0 0c20.447582 -20.447582 53.444546 -20.602695 73.70079 -0.34645653z" fill-rule="evenodd"></path><path stroke="#7c1f44" stroke-width="2.0" stroke-linejoin="round" stroke-linecap="butt" d="m101.221886 31.208605l0 0c20.25624 20.256239 20.101128 53.253204 -0.34645844 73.70079q-37.02362 37.02362 -37.370075 110.72441q0.34645462 -73.70079 -36.33071 -110.37795l0 0c-20.256239 -20.25624 -20.101126 -53.25321 0.34645653 -73.70079l0 0c20.447582 -20.447582 53.444546 -20.602695 73.70079 -0.34645653z" fill-rule="evenodd"></path></g></svg>

