<svg version="1.1" viewBox="0.0 0.0 139.54330708661416 141.3044619422572" fill="none" stroke="none" stroke-linecap="square" stroke-miterlimit="10" xmlns:xlink="http://www.w3.org/1999/xlink" xmlns="http://www.w3.org/2000/svg"><clipPath id="p.0"><path d="m0 0l139.5433 0l0 141.30446l-139.5433 0l0 -141.30446z" clip-rule="nonzero"/></clipPath><g clip-path="url(#p.0)"><path fill="#000000" fill-opacity="0.0" d="m0 0l139.5433 0l0 141.30446l-139.5433 0z" fill-rule="evenodd"/><path fill="#000000" fill-opacity="0.0" d="m11.238852 53.047512l0 0c12.040796 -20.34816 34.515617 -32.832497 59.075935 -32.81556c24.56031 0.016937256 47.53646 12.532616 60.393692 32.897938l-59.057564 33.731728z" fill-rule="evenodd"/><path fill="#000000" fill-opacity="0.0" d="m11.238852 53.047512l0 0c12.040796 -20.34816 34.515617 -32.832497 59.075935 -32.81556c24.56031 0.016937256 47.53646 12.532616 60.393692 32.897938" fill-rule="evenodd"/><path stroke="#1c2331" stroke-width="3.0" stroke-linejoin="round" stroke-linecap="butt" d="m11.238852 53.047512l0 0c12.040796 -20.34816 34.515617 -32.832497 59.075935 -32.81556c24.56031 0.016937256 47.53646 12.532616 60.393692 32.897938" fill-rule="evenodd"/><path fill="#000000" fill-opacity="0.0" d="m132.1121 48.963287l0 0c-10.588615 22.669533 -33.823288 37.278717 -59.94664 37.69246c-26.123352 0.41373444 -50.61152 -13.439629 -63.180733 -35.742386l60.276352 -30.205994z" fill-rule="evenodd"/><path fill="#000000" fill-opacity="0.0" d="m132.1121 48.963287l0 0c-10.588615 22.669533 -33.823288 37.278717 -59.94664 37.69246c-26.123352 0.41373444 -50.61152 -13.439629 -63.180733 -35.742386" fill-rule="evenodd"/><path stroke="#1c2331" stroke-width="3.0" stroke-linejoin="round" stroke-linecap="butt" d="m132.1121 48.963287l0 0c-10.588615 22.669533 -33.823288 37.278717 -59.94664 37.69246c-26.123352 0.41373444 -50.61152 -13.439629 -63.180733 -35.742386" fill-rule="evenodd"/><path fill="#1c2331" d="m94.05774 34.734154l0 0c13.072189 13.0721855 12.994629 33.70234 -0.17323303 46.078735q-21.228546 19.95259 -23.97776 58.384514q-2.4597397 -38.570045 -23.53405 -59.644356l0 0c-13.072189 -13.072189 -12.994629 -33.70234 0.17322922 -46.078735l0 0c13.167862 -12.376398 34.439625 -11.812347 47.511814 1.2598419z" fill-rule="evenodd"/><path stroke="#1c2331" stroke-width="1.0" stroke-linejoin="round" stroke-linecap="butt" d="m94.05774 34.734154l0 0c13.072189 13.0721855 12.994629 33.70234 -0.17323303 46.078735q-21.228546 19.95259 -23.97776 58.384514q-2.4597397 -38.570045 -23.53405 -59.644356l0 0c-13.072189 -13.072189 -12.994629 -33.70234 0.17322922 -46.078735l0 0c13.167862 -12.376398 34.439625 -11.812347 47.511814 1.2598419z" fill-rule="evenodd"/><path fill="#ffffff" d="m91.45931 37.97904l0 0c11.419685 12.0285 11.165863 30.26849 -0.56692505 40.740154q-18.915 16.881882 -21.686714 50.7677q-1.8243256 -34.194862 -20.234547 -53.586594l0 0c-11.419685 -12.028503 -11.165863 -30.26849 0.56692886 -40.740158l0 0c11.732788 -10.471666 30.501572 -9.209604 41.921257 2.8188972z" fill-rule="evenodd"/><path stroke="#1c2331" stroke-width="1.0" stroke-linejoin="round" stroke-linecap="butt" d="m91.45931 37.97904l0 0c11.419685 12.0285 11.165863 30.26849 -0.56692505 40.740154q-18.915 16.881882 -21.686714 50.7677q-1.8243256 -34.194862 -20.234547 -53.586594l0 0c-11.419685 -12.028503 -11.165863 -30.26849 0.56692886 -40.740158l0 0c11.732788 -10.471666 30.501572 -9.209604 41.921257 2.8188972z" fill-rule="evenodd"/><path fill="#000000" fill-opacity="0.0" d="m8.7142515 51.940174l0 0c10.66006 -22.739195 34.04461 -37.337837 60.271183 -37.626434c26.22657 -0.288599 50.718407 13.783207 63.1251 36.268574l-60.578056 29.680748z" fill-rule="evenodd"/><path fill="#000000" fill-opacity="0.0" d="m8.7142515 51.940174l0 0c10.66006 -22.739195 34.04461 -37.337837 60.271183 -37.626434c26.22657 -0.288599 50.718407 13.783207 63.1251 36.268574" fill-rule="evenodd"/><path stroke="#1c2331" stroke-width="3.0" stroke-linejoin="round" stroke-linecap="butt" d="m8.7142515 51.940174l0 0c10.66006 -22.739195 34.04461 -37.337837 60.271183 -37.626434c26.22657 -0.288599 50.718407 13.783207 63.1251 36.268574" fill-rule="evenodd"/><path fill="#1c2331" d="m49.818897 57.144356l0 0c0 -10.5412445 8.933155 -19.086613 19.952755 -19.086613l0 0c5.2918015 0 10.366859 2.0109062 14.108734 5.5903397c3.741867 3.5794334 5.8440247 8.434189 5.8440247 13.496273l0 0c0 10.5412445 -8.933151 19.086617 -19.952759 19.086617l0 0c-11.0196 0 -19.952755 -8.545372 -19.952755 -19.086617zm3.9264984 0l0 0c0 8.372704 7.1752014 15.160118 16.026257 15.160118c8.851059 0 16.02626 -6.7874146 16.02626 -15.160118l0 0c0 -8.3727 -7.1752014 -15.160114 -16.02626 -15.160114l0 0c-8.851055 0 -16.026257 6.7874146 -16.026257 15.160114z" fill-rule="evenodd"/><path stroke="#1c2331" stroke-width="1.0" stroke-linejoin="round" stroke-linecap="butt" d="m49.818897 57.144356l0 0c0 -10.5412445 8.933155 -19.086613 19.952755 -19.086613l0 0c5.2918015 0 10.366859 2.0109062 14.108734 5.5903397c3.741867 3.5794334 5.8440247 8.434189 5.8440247 13.496273l0 0c0 10.5412445 -8.933151 19.086617 -19.952759 19.086617l0 0c-11.0196 0 -19.952755 -8.545372 -19.952755 -19.086617zm3.9264984 0l0 0c0 8.372704 7.1752014 15.160118 16.026257 15.160118c8.851059 0 16.02626 -6.7874146 16.02626 -15.160118l0 0c0 -8.3727 -7.1752014 -15.160114 -16.02626 -15.160114l0 0c-8.851055 0 -16.026257 6.7874146 -16.026257 15.160114z" fill-rule="evenodd"/><path fill="#3f2d34" d="m56.559055 57.144356l0 0c0 -6.8274574 5.9154816 -12.362202 13.212597 -12.362202l0 0c7.297119 0 13.212601 5.5347443 13.212601 12.362202l0 0c0 6.8274574 -5.9154816 12.3622055 -13.212601 12.3622055l0 0c-7.2971153 0 -13.212597 -5.534748 -13.212597 -12.3622055zm0.9385376 0l0 0c0 6.3091164 5.495285 11.423668 12.274059 11.423668c6.778778 0 12.274063 -5.1145515 12.274063 -11.423668l0 0c0 -6.3091164 -5.495285 -11.423664 -12.274063 -11.423664l0 0c-6.7787743 0 -12.274059 5.1145477 -12.274059 11.423664z" fill-rule="evenodd"/><path stroke="#1c2331" stroke-width="1.0" stroke-linejoin="round" stroke-linecap="butt" d="m56.559055 57.144356l0 0c0 -6.8274574 5.9154816 -12.362202 13.212597 -12.362202l0 0c7.297119 0 13.212601 5.5347443 13.212601 12.362202l0 0c0 6.8274574 -5.9154816 12.3622055 -13.212601 12.3622055l0 0c-7.2971153 0 -13.212597 -5.534748 -13.212597 -12.3622055zm0.9385376 0l0 0c0 6.3091164 5.495285 11.423668 12.274059 11.423668c6.778778 0 12.274063 -5.1145515 12.274063 -11.423668l0 0c0 -6.3091164 -5.495285 -11.423664 -12.274063 -11.423664l0 0c-6.7787743 0 -12.274059 5.1145477 -12.274059 11.423664z" fill-rule="evenodd"/><path fill="#3f2d34" d="m61.17323 57.144356l0 0c0 -4.4182777 3.8496437 -8.0 8.598423 -8.0l0 0c4.7487793 0 8.598427 3.5817223 8.598427 8.0l0 0c0 4.4182777 -3.8496475 8.0 -8.598427 8.0l0 0c-4.7487793 0 -8.598423 -3.5817223 -8.598423 -8.0zm0.60736084 0l0 0c0 4.082844 3.5777168 7.392639 7.991062 7.392639c4.4133453 0 7.991066 -3.3097954 7.991066 -7.392639l0 0c0 -4.08284 -3.5777206 -7.392639 -7.991066 -7.392639l0 0c-4.4133453 0 -7.991062 3.3097992 -7.991062 7.392639z" fill-rule="evenodd"/><path stroke="#1c2331" stroke-width="1.0" stroke-linejoin="round" stroke-linecap="butt" d="m61.17323 57.144356l0 0c0 -4.4182777 3.8496437 -8.0 8.598423 -8.0l0 0c4.7487793 0 8.598427 3.5817223 8.598427 8.0l0 0c0 4.4182777 -3.8496475 8.0 -8.598427 8.0l0 0c-4.7487793 0 -8.598423 -3.5817223 -8.598423 -8.0zm0.60736084 0l0 0c0 4.082844 3.5777168 7.392639 7.991062 7.392639c4.4133453 0 7.991066 -3.3097954 7.991066 -7.392639l0 0c0 -4.08284 -3.5777206 -7.392639 -7.991066 -7.392639l0 0c-4.4133453 0 -7.991062 3.3097992 -7.991062 7.392639z" fill-rule="evenodd"/><path fill="#3f2d34" d="m64.637794 57.144356l0 0c0 -2.6266136 2.2985077 -4.755905 5.1338577 -4.755905l0 0c2.83535 0 5.1338577 2.1292915 5.1338577 4.755905l0 0c0 2.6266136 -2.2985077 4.755905 -5.1338577 4.755905l0 0c-2.83535 0 -5.1338577 -2.1292915 -5.1338577 -4.755905zm0.36106873 0l0 0c0 2.4272041 2.1368484 4.3948402 4.772789 4.3948402c2.6359406 0 4.772789 -1.9676361 4.772789 -4.3948402l0 0c0 -2.4272003 -2.1368484 -4.3948364 -4.772789 -4.3948364l0 0c-2.6359406 0 -4.772789 1.9676361 -4.772789 4.3948364z" fill-rule="evenodd"/><path stroke="#1c2331" stroke-width="1.0" stroke-linejoin="round" stroke-linecap="butt" d="m64.637794 57.144356l0 0c0 -2.6266136 2.2985077 -4.755905 5.1338577 -4.755905l0 0c2.83535 0 5.1338577 2.1292915 5.1338577 4.755905l0 0c0 2.6266136 -2.2985077 4.755905 -5.1338577 4.755905l0 0c-2.83535 0 -5.1338577 -2.1292915 -5.1338577 -4.755905zm0.36106873 0l0 0c0 2.4272041 2.1368484 4.3948402 4.772789 4.3948402c2.6359406 0 4.772789 -1.9676361 4.772789 -4.3948402l0 0c0 -2.4272003 -2.1368484 -4.3948364 -4.772789 -4.3948364l0 0c-2.6359406 0 -4.772789 1.9676361 -4.772789 4.3948364z" fill-rule="evenodd"/></g></svg>