<svg version="1.1" viewBox="0.0 0.0 100.0 100.0" fill="none" stroke="none" stroke-linecap="square" stroke-miterlimit="10" xmlns:xlink="http://www.w3.org/1999/xlink" xmlns="http://www.w3.org/2000/svg"><clipPath id="p.0"><path d="m0 0l100.0 0l0 100.0l-100.0 0l0 -100.0z" clip-rule="nonzero"/></clipPath><g clip-path="url(#p.0)"><path fill="#000000" fill-opacity="0.0" d="m0 0l100.0 0l0 100.0l-100.0 0z" fill-rule="evenodd"/><path fill="#000000" fill-opacity="0.0" d="m70.30244 48.226345l0 0c-3.5226593 7.6552696 -11.243488 12.581036 -19.91632 12.706284c-8.6728325 0.12524796 -16.793602 -4.571739 -20.947977 -12.116142l20.022573 -10.149746z" fill-rule="evenodd"/><path fill="#000000" fill-opacity="0.0" d="m70.30244 48.226345l0 0c-3.5226593 7.6552696 -11.243488 12.581036 -19.91632 12.706284c-8.6728325 0.12524796 -16.793602 -4.571739 -20.947977 -12.116142" fill-rule="evenodd"/><path stroke="#ffffff" stroke-width="3.0" stroke-linejoin="round" stroke-linecap="butt" d="m70.30244 48.226345l0 0c-3.5226593 7.6552696 -11.243488 12.581036 -19.91632 12.706284c-8.6728325 0.12524796 -16.793602 -4.571739 -20.947977 -12.116142" fill-rule="evenodd"/><path fill="#4dbeb1" fill-opacity="0.6115" d="m57.672592 43.39866l0 0c4.34 4.4182777 4.311798 11.391354 -0.062992096 15.574802q-7.0528145 6.744343 -7.97044 19.734516q-0.8123627 -13.036789 -7.8090897 -20.159714l0 0c-4.34 -4.4182777 -4.311798 -11.391354 0.062992096 -15.574802l0 0c4.37479 -4.183449 11.439526 -3.9930801 15.77953 0.4251976z" fill-rule="evenodd"/><path stroke="#ffffff" stroke-width="1.0" stroke-linejoin="round" stroke-linecap="butt" d="m57.672592 43.39866l0 0c4.34 4.4182777 4.311798 11.391354 -0.062992096 15.574802q-7.0528145 6.744343 -7.97044 19.734516q-0.8123627 -13.036789 -7.8090897 -20.159714l0 0c-4.34 -4.4182777 -4.311798 -11.391354 0.062992096 -15.574802l0 0c4.37479 -4.183449 11.439526 -3.9930801 15.77953 0.4251976z" fill-rule="evenodd"/><path fill="#4dbeb1" fill-opacity="0.6115" d="m56.809185 44.502018l0 0c3.7920647 4.0616875 3.714508 10.223938 -0.17322922 13.7637825q-6.2676086 5.706749 -7.174614 17.155243q-0.6175232 -11.55209 -6.730896 -18.100128l0 0c-3.7920647 -4.0616837 -3.714508 -10.223938 0.17322922 -13.763779l0 0c3.8877373 -3.5398407 10.113445 -3.1168022 13.90551 0.94488144z" fill-rule="evenodd"/><path fill="#000000" fill-opacity="0.0" d="m29.356115 49.19591l0 0c3.5478344 -7.681568 11.321119 -12.604321 20.03094 -12.685413c8.70982 -0.081092834 16.834053 4.6936455 20.935303 12.303997l-20.12912 9.972446z" fill-rule="evenodd"/><path fill="#000000" fill-opacity="0.0" d="m29.356115 49.19591l0 0c3.5478344 -7.681568 11.321119 -12.604321 20.03094 -12.685413c8.70982 -0.081092834 16.834053 4.6936455 20.935303 12.303997" fill-rule="evenodd"/><path stroke="#ffffff" stroke-width="3.0" stroke-linejoin="round" stroke-linecap="butt" d="m29.356115 49.19591l0 0c3.5478344 -7.681568 11.321119 -12.604321 20.03094 -12.685413c8.70982 -0.081092834 16.834053 4.6936455 20.935303 12.303997" fill-rule="evenodd"/><path fill="#fff389" d="m42.99181 50.96787l0 0c0 -3.5572357 2.968319 -6.4409447 6.629921 -6.4409447l0 0c1.7583656 0 3.4447136 0.6785965 4.6880646 1.886509c1.243351 1.2079086 1.9418602 2.8461914 1.9418602 4.5544357l0 0c0 3.5572357 -2.968319 6.4409447 -6.629925 6.4409447l0 0c-3.661602 0 -6.629921 -2.883709 -6.629921 -6.4409447zm1.3250313 0l0 0c0 2.8254395 2.37508 5.1159134 5.3048897 5.1159134c2.9298134 0 5.3048935 -2.290474 5.3048935 -5.1159134l0 0c0 -2.8254433 -2.37508 -5.1159134 -5.3048935 -5.1159134l0 0c-2.9298096 0 -5.3048897 2.2904701 -5.3048897 5.1159134z" fill-rule="evenodd"/><path fill="#fff389" d="m45.228905 50.971313l0 0c0 -2.3048134 1.9600754 -4.173229 4.3779526 -4.173229l0 0c1.1611023 0 2.2746544 0.4396782 3.0956802 1.2223091c0.82102203 0.7826309 1.2822723 1.8441086 1.2822723 2.95092l0 0c0 2.3048096 -1.9600792 4.1732254 -4.3779526 4.1732254l0 0c-2.4178772 0 -4.3779526 -1.8684158 -4.3779526 -4.1732254zm0.31682968 0l0 0c0 2.1298294 1.8182259 3.8563957 4.061123 3.8563957c2.2428932 0 4.061119 -1.7265663 4.061119 -3.8563957l0 0c0 -2.1298294 -1.8182259 -3.8563995 -4.061119 -3.8563995l0 0c-2.242897 0 -4.061123 1.7265701 -4.061123 3.8563995z" fill-rule="evenodd"/><path fill="#fff389" d="m46.760372 50.980076l0 0c0 -1.4959526 1.2761612 -2.708664 2.8503914 -2.708664l0 0c0.75597 0 1.4809799 0.2853775 2.0155334 0.7933502c0.5345535 0.5079727 0.83486176 1.1969299 0.83486176 1.9153137l0 0c0 1.4959526 -1.276165 2.7086601 -2.8503952 2.7086601l0 0c-1.5742302 0 -2.8503914 -1.2127075 -2.8503914 -2.7086601zm0.20563889 0l0 0c0 1.3823776 1.1840973 2.5030174 2.6447525 2.5030174c1.4606552 0 2.6447525 -1.1206398 2.6447525 -2.5030174l0 0c0 -1.3823814 -1.1840973 -2.5030212 -2.6447525 -2.5030212l0 0c-1.4606552 0 -2.6447525 1.1206398 -2.6447525 2.5030212z" fill-rule="evenodd"/><path fill="#fff389" d="m47.91028 50.9734l0 0c0 -0.88713455 0.761467 -1.6062965 1.7007866 -1.6062965l0 0c0.4510765 0 0.88367844 0.16923141 1.2026367 0.47047424c0.3189621 0.301239 0.49814987 0.70980835 0.49814987 1.1358223l0 0c0 0.88713455 -0.761467 1.6063004 -1.7007866 1.6063004l0 0c-0.9393196 0 -1.7007866 -0.7191658 -1.7007866 -1.6063004zm0.12194824 0l0 0c0 0.8197861 0.70687103 1.4843483 1.5788383 1.4843483c0.8719673 0 1.5788383 -0.6645622 1.5788383 -1.4843483l0 0c0 -0.81978226 -0.70687103 -1.4843483 -1.5788383 -1.4843483l0 0c-0.8719673 0 -1.5788383 0.66456604 -1.5788383 1.4843483z" fill-rule="evenodd"/><path fill="#000000" fill-opacity="0.0" d="m30.190851 49.56866l0 0c4.002985 -6.881111 11.47439 -11.098312 19.634352 -11.082527c8.159962 0.015785217 15.786903 4.262192 20.043106 11.159279l-19.629318 11.356312z" fill-rule="evenodd"/><path fill="#000000" fill-opacity="0.0" d="m30.190851 49.56866l0 0c4.002985 -6.881111 11.47439 -11.098312 19.634352 -11.082527c8.159962 0.015785217 15.786903 4.262192 20.043106 11.159279" fill-rule="evenodd"/><path stroke="#ffffff" stroke-width="3.0" stroke-linejoin="round" stroke-linecap="butt" d="m30.190851 49.56866l0 0c4.002985 -6.881111 11.47439 -11.098312 19.634352 -11.082527c8.159962 0.015785217 15.786903 4.262192 20.043106 11.159279" fill-rule="evenodd"/></g></svg>