<?xml version="1.0" standalone="yes"?>

<svg version="1.1" viewBox="0.0 0.0 960.9133858267717 365.4750656167979" fill="none" stroke="none" stroke-linecap="square" stroke-miterlimit="10" xmlns="http://www.w3.org/2000/svg" xmlns:xlink="http://www.w3.org/1999/xlink"><clipPath id="p.0"><path d="m0 0l960.9134 0l0 365.47507l-960.9134 0l0 -365.47507z" clip-rule="nonzero"></path></clipPath><g clip-path="url(#p.0)"><path fill="#000000" fill-opacity="0.0" d="m0 0l960.9134 0l0 365.47507l-960.9134 0z" fill-rule="evenodd"></path><path fill="#000000" fill-opacity="0.0" d="m-0.0052501312 300.89502c28.187164 -30.50119 115.236115 -183.64227 169.12299 -183.0072c53.88687 0.63507843 102.79883 186.18265 154.19824 186.81772c51.399414 0.6351013 101.13995 -183.0072 154.19824 -183.0072c53.05829 0 110.26465 183.6423 164.15149 183.0072c53.8869 -0.6350708 106.11316 -186.18263 159.16974 -186.81772c53.05658 -0.63508606 132.64142 152.50601 159.16974 183.0072" fill-rule="evenodd"></path><path stroke="#d7c7cd" stroke-width="3.0" stroke-linejoin="round" stroke-linecap="butt" d="m-0.0052501312 300.89502c28.187164 -30.50119 115.236115 -183.64227 169.12299 -183.0072c53.88687 0.63507843 102.79883 186.18265 154.19824 186.81772c51.399414 0.6351013 101.13995 -183.0072 154.19824 -183.0072c53.05829 0 110.26465 183.6423 164.15149 183.0072c53.8869 -0.6350708 106.11316 -186.18263 159.16974 -186.81772c53.05658 -0.63508606 132.64142 152.50601 159.16974 183.0072" fill-rule="evenodd"></path><path fill="#000000" fill-opacity="0.0" d="m-0.0050464566 192.66911c28.187164 -30.501205 115.236115 -183.6423 169.12299 -183.00722c53.88687 0.63508415 102.79884 186.18263 154.19826 186.81772c51.399414 0.63508606 101.13992 -183.00722 154.19824 -183.00722c53.058258 0 110.26462 183.6423 164.15152 183.00722c53.88684 -0.63508606 106.1131 -186.18263 159.16968 -186.81772c53.05658 -0.63508415 132.64142 152.50601 159.16974 183.00722" fill-rule="evenodd"></path><path stroke="#3f2d34" stroke-width="3.0" stroke-linejoin="round" stroke-linecap="butt" d="m-0.0050464566 192.66911c28.187164 -30.501205 115.236115 -183.6423 169.12299 -183.00722c53.88687 0.63508415 102.79884 186.18263 154.19826 186.81772c51.399414 0.63508606 101.13992 -183.00722 154.19824 -183.00722c53.058258 0 110.26462 183.6423 164.15152 183.00722c53.88684 -0.63508606 106.1131 -186.18263 159.16968 -186.81772c53.05658 -0.63508415 132.64142 152.50601 159.16974 183.00722" fill-rule="evenodd"></path><path fill="#000000" fill-opacity="0.0" d="m-0.0052501312 246.99736c28.187164 -30.501205 115.236115 -183.6423 169.12299 -183.00722c53.88687 0.63508606 102.79883 186.18263 154.19824 186.81772c51.399414 0.63508606 101.13995 -183.0072 154.19824 -183.0072c53.05829 0 110.26465 183.6423 164.15149 183.0072c53.8869 -0.63508606 106.11316 -186.18263 159.16974 -186.81772c53.05658 -0.63508224 132.64142 152.50601 159.16974 183.00722" fill-rule="evenodd"></path><path stroke="#4dbeb1" stroke-width="3.0" stroke-linejoin="round" stroke-linecap="butt" d="m-0.0052501312 246.99736c28.187164 -30.501205 115.236115 -183.6423 169.12299 -183.00722c53.88687 0.63508606 102.79883 186.18263 154.19824 186.81772c51.399414 0.63508606 101.13995 -183.0072 154.19824 -183.0072c53.05829 0 110.26465 183.6423 164.15149 183.0072c53.8869 -0.63508606 106.11316 -186.18263 159.16974 -186.81772c53.05658 -0.63508224 132.64142 152.50601 159.16974 183.00722" fill-rule="evenodd"></path><path fill="#000000" fill-opacity="0.0" d="m279.67413 87.500465l0 0c12.053772 -12.05378 28.589691 -18.638039 45.97003 -18.304306c17.38034 0.33372498 34.181396 7.558098 46.707153 20.083832l-45.448822 45.448814z" fill-rule="evenodd"></path><path fill="#000000" fill-opacity="0.0" d="m279.67413 87.500465l0 0c12.053772 -12.05378 28.589691 -18.638039 45.97003 -18.304306c17.38034 0.33372498 34.181396 7.558098 46.707153 20.083832" fill-rule="evenodd"></path><path stroke="#fff389" stroke-width="3.0" stroke-linejoin="round" stroke-linecap="butt" d="m279.67413 87.500465l0 0c12.053772 -12.05378 28.589691 -18.638039 45.97003 -18.304306c17.38034 0.33372498 34.181396 7.558098 46.707153 20.083832" fill-rule="evenodd"></path><path fill="#000000" fill-opacity="0.0" d="m279.67413 110.169754l0 0c12.053772 -12.05378 28.589691 -18.638031 45.97003 -18.304306c17.38034 0.33372498 34.181396 7.558098 46.707153 20.083832l-45.448822 45.448822z" fill-rule="evenodd"></path><path fill="#000000" fill-opacity="0.0" d="m279.67413 110.169754l0 0c12.053772 -12.05378 28.589691 -18.638031 45.97003 -18.304306c17.38034 0.33372498 34.181396 7.558098 46.707153 20.083832" fill-rule="evenodd"></path><path stroke="#fff389" stroke-width="3.0" stroke-linejoin="round" stroke-linecap="butt" d="m279.67413 110.169754l0 0c12.053772 -12.05378 28.589691 -18.638031 45.97003 -18.304306c17.38034 0.33372498 34.181396 7.558098 46.707153 20.083832" fill-rule="evenodd"></path><path fill="#000000" fill-opacity="0.0" d="m370.70456 121.593575l0 0c-12.04541 12.057945 -28.573334 18.646217 -45.947754 18.315437c-17.37445 -0.33076477 -34.17218 -7.553482 -46.697906 -20.079216l45.417297 -45.46457z" fill-rule="evenodd"></path><path fill="#000000" fill-opacity="0.0" d="m370.70456 121.593575l0 0c-12.04541 12.057945 -28.573334 18.646217 -45.947754 18.315437c-17.37445 -0.33076477 -34.17218 -7.553482 -46.697906 -20.079216" fill-rule="evenodd"></path><path stroke="#fff389" stroke-width="3.0" stroke-linejoin="round" stroke-linecap="butt" d="m370.70456 121.593575l0 0c-12.04541 12.057945 -28.573334 18.646217 -45.947754 18.315437c-17.37445 -0.33076477 -34.17218 -7.553482 -46.697906 -20.079216" fill-rule="evenodd"></path><path fill="#000000" fill-opacity="0.0" d="m596.5298 87.500465l0 0c12.053772 -12.05378 28.58966 -18.638039 45.97003 -18.304306c17.38031 0.33372498 34.181396 7.558098 46.707153 20.083832l-45.448853 45.448814z" fill-rule="evenodd"></path><path fill="#000000" fill-opacity="0.0" d="m596.5298 87.500465l0 0c12.053772 -12.05378 28.58966 -18.638039 45.97003 -18.304306c17.38031 0.33372498 34.181396 7.558098 46.707153 20.083832" fill-rule="evenodd"></path><path stroke="#fff389" stroke-width="3.0" stroke-linejoin="round" stroke-linecap="butt" d="m596.5298 87.500465l0 0c12.053772 -12.05378 28.58966 -18.638039 45.97003 -18.304306c17.38031 0.33372498 34.181396 7.558098 46.707153 20.083832" fill-rule="evenodd"></path><path fill="#000000" fill-opacity="0.0" d="m596.5298 110.169754l0 0c12.053772 -12.05378 28.58966 -18.638031 45.97003 -18.304306c17.38031 0.33372498 34.181396 7.558098 46.707153 20.083832l-45.448853 45.448822z" fill-rule="evenodd"></path><path fill="#000000" fill-opacity="0.0" d="m596.5298 110.169754l0 0c12.053772 -12.05378 28.58966 -18.638031 45.97003 -18.304306c17.38031 0.33372498 34.181396 7.558098 46.707153 20.083832" fill-rule="evenodd"></path><path stroke="#fff389" stroke-width="3.0" stroke-linejoin="round" stroke-linecap="butt" d="m596.5298 110.169754l0 0c12.053772 -12.05378 28.58966 -18.638031 45.97003 -18.304306c17.38031 0.33372498 34.181396 7.558098 46.707153 20.083832" fill-rule="evenodd"></path><path fill="#000000" fill-opacity="0.0" d="m687.5602 121.593575l0 0c-12.04541 12.057945 -28.573303 18.646217 -45.947754 18.315437c-17.37439 -0.33076477 -34.17218 -7.553482 -46.697876 -20.079216l45.417297 -45.46457z" fill-rule="evenodd"></path><path fill="#000000" fill-opacity="0.0" d="m687.5602 121.593575l0 0c-12.04541 12.057945 -28.573303 18.646217 -45.947754 18.315437c-17.37439 -0.33076477 -34.17218 -7.553482 -46.697876 -20.079216" fill-rule="evenodd"></path><path stroke="#fff389" stroke-width="3.0" stroke-linejoin="round" stroke-linecap="butt" d="m687.5602 121.593575l0 0c-12.04541 12.057945 -28.573303 18.646217 -45.947754 18.315437c-17.37439 -0.33076477 -34.17218 -7.553482 -46.697876 -20.079216" fill-rule="evenodd"></path><path fill="#4dbeb1" fill-opacity="0.6115" d="m661.55383 99.44398l0 0c10.697754 10.6978 10.979797 27.76033 0.6298828 38.110237q-16.685547 16.685577 -18.248352 48.493958q-2.6154175 -31.877441 -19.861877 -49.123886l0 0c-10.697815 -10.697792 -10.979797 -27.76033 -0.6298828 -38.11023l0 0c10.3498535 -10.349907 27.412415 -10.067879 38.11023 0.62992096z" fill-rule="evenodd"></path><path fill="#4dbeb1" fill-opacity="0.6115" d="m345.64304 99.44398l0 0c10.697815 10.6978 10.979828 27.76033 0.62994385 38.110237q-16.685577 16.685577 -18.248383 48.493958q-2.6154175 -31.877441 -19.861847 -49.123886l0 0c-10.697815 -10.697792 -10.979828 -27.76033 -0.62994385 -38.11023l0 0c10.349915 -10.349907 27.412445 -10.067879 38.11023 0.62992096z" fill-rule="evenodd"></path><path fill="#4dbeb1" fill-opacity="0.6115" d="m345.64304 110.207756l0 0c10.697815 10.6978 10.979828 27.760338 0.62994385 38.110237q-16.685577 16.685577 -18.248383 48.493958q-2.6154175 -31.877441 -19.861847 -49.123886l0 0c-10.697815 -10.697784 -10.979828 -27.760323 -0.62994385 -38.11023l0 0c10.349915 -10.349899 27.412445 -10.067879 38.11023 0.62992096z" fill-rule="evenodd"></path><path fill="#4dbeb1" fill-opacity="0.6115" d="m661.55383 110.207756l0 0c10.697754 10.6978 10.979797 27.760338 0.6298828 38.110237q-16.685547 16.685577 -18.248352 48.493958q-2.6154175 -31.877441 -19.861877 -49.123886l0 0c-10.697815 -10.697784 -10.979797 -27.760323 -0.6298828 -38.11023l0 0c10.3498535 -10.349899 27.412415 -10.067879 38.11023 0.62992096z" fill-rule="evenodd"></path><path fill="#000000" fill-opacity="0.0" d="m643.7979 168.8084l1.0078735 185.54332" fill-rule="evenodd"></path><path stroke="#4dbeb1" stroke-width="3.0" stroke-linejoin="round" stroke-linecap="butt" d="m643.7979 168.8084l1.0078735 185.54332" fill-rule="evenodd"></path><path fill="#000000" fill-opacity="0.0" d="m328.04987 161.29134l-2.0472412 192.063" fill-rule="evenodd"></path><path stroke="#4dbeb1" stroke-width="3.0" stroke-linejoin="round" stroke-linecap="butt" d="m328.04987 161.29134l-2.0472412 192.063" fill-rule="evenodd"></path><path fill="#000000" fill-opacity="0.0" d="m-0.004834908 350.14435c28.187164 -30.50119 115.236115 -183.6423 169.12299 -183.00722c53.88687 0.63508606 102.79884 186.18263 154.19826 186.81773c51.399414 0.6350708 101.13992 -183.00723 154.19824 -183.00723c53.05829 0 110.26465 183.6423 164.15149 183.00723c53.8869 -0.6351013 106.11316 -186.18265 159.16974 -186.81773c53.05658 -0.63508606 132.64142 152.50603 159.16968 183.00722" fill-rule="evenodd"></path><path stroke="#fff389" stroke-width="3.0" stroke-linejoin="round" stroke-linecap="butt" d="m-0.004834908 350.14435c28.187164 -30.50119 115.236115 -183.6423 169.12299 -183.00722c53.88687 0.63508606 102.79884 186.18263 154.19826 186.81773c51.399414 0.6350708 101.13992 -183.00723 154.19824 -183.00723c53.05829 0 110.26465 183.6423 164.15149 183.00723c53.8869 -0.6351013 106.11316 -186.18265 159.16974 -186.81773c53.05658 -0.63508606 132.64142 152.50603 159.16968 183.00722" fill-rule="evenodd"></path></g></svg>

