<?xml version="1.0" standalone="yes"?>

<svg version="1.1" viewBox="0.0 0.0 960.9133858267717 365.4750656167979" fill="none" stroke="none" stroke-linecap="square" stroke-miterlimit="10" xmlns="http://www.w3.org/2000/svg" xmlns:xlink="http://www.w3.org/1999/xlink"><clipPath id="p.0"><path d="m0 0l960.9134 0l0 365.47507l-960.9134 0l0 -365.47507z" clip-rule="nonzero"></path></clipPath><g clip-path="url(#p.0)"><path fill="#000000" fill-opacity="0.0" d="m0 0l960.9134 0l0 365.47507l-960.9134 0z" fill-rule="evenodd"></path><path fill="#000000" fill-opacity="0.0" d="m-0.0052501312 300.89502c28.187164 -30.50119 115.236115 -183.64227 169.12299 -183.0072c53.88687 0.63507843 102.79883 186.18265 154.19824 186.81772c51.399414 0.6351013 101.13995 -183.0072 154.19824 -183.0072c53.05829 0 110.26465 183.6423 164.15149 183.0072c53.8869 -0.6350708 106.11316 -186.18263 159.16974 -186.81772c53.05658 -0.63508606 132.64142 152.50601 159.16974 183.0072" fill-rule="evenodd"></path><path stroke="#d7c7cd" stroke-width="3.0" stroke-linejoin="round" stroke-linecap="butt" d="m-0.0052501312 300.89502c28.187164 -30.50119 115.236115 -183.64227 169.12299 -183.0072c53.88687 0.63507843 102.79883 186.18265 154.19824 186.81772c51.399414 0.6351013 101.13995 -183.0072 154.19824 -183.0072c53.05829 0 110.26465 183.6423 164.15149 183.0072c53.8869 -0.6350708 106.11316 -186.18263 159.16974 -186.81772c53.05658 -0.63508606 132.64142 152.50601 159.16974 183.0072" fill-rule="evenodd"></path><path fill="#000000" fill-opacity="0.0" d="m-0.0050464566 192.66911c28.187164 -30.501205 115.236115 -183.6423 169.12299 -183.00722c53.88687 0.63508415 102.79884 186.18263 154.19826 186.81772c51.399414 0.63508606 101.13992 -183.00722 154.19824 -183.00722c53.058258 0 110.26462 183.6423 164.15152 183.00722c53.88684 -0.63508606 106.1131 -186.18263 159.16968 -186.81772c53.05658 -0.63508415 132.64142 152.50601 159.16974 183.00722" fill-rule="evenodd"></path><path stroke="#3f2d34" stroke-width="3.0" stroke-linejoin="round" stroke-linecap="butt" d="m-0.0050464566 192.66911c28.187164 -30.501205 115.236115 -183.6423 169.12299 -183.00722c53.88687 0.63508415 102.79884 186.18263 154.19826 186.81772c51.399414 0.63508606 101.13992 -183.00722 154.19824 -183.00722c53.058258 0 110.26462 183.6423 164.15152 183.00722c53.88684 -0.63508606 106.1131 -186.18263 159.16968 -186.81772c53.05658 -0.63508415 132.64142 152.50601 159.16974 183.00722" fill-rule="evenodd"></path><path fill="#000000" fill-opacity="0.0" d="m-0.0052501312 246.99736c28.187164 -30.501205 115.236115 -183.6423 169.12299 -183.00722c53.88687 0.63508606 102.79883 186.18263 154.19824 186.81772c51.399414 0.63508606 101.13995 -183.0072 154.19824 -183.0072c53.05829 0 110.26465 183.6423 164.15149 183.0072c53.8869 -0.63508606 106.11316 -186.18263 159.16974 -186.81772c53.05658 -0.63508224 132.64142 152.50601 159.16974 183.00722" fill-rule="evenodd"></path><path stroke="#4dbeb1" stroke-width="3.0" stroke-linejoin="round" stroke-linecap="butt" d="m-0.0052501312 246.99736c28.187164 -30.501205 115.236115 -183.6423 169.12299 -183.00722c53.88687 0.63508606 102.79883 186.18263 154.19824 186.81772c51.399414 0.63508606 101.13995 -183.0072 154.19824 -183.0072c53.05829 0 110.26465 183.6423 164.15149 183.0072c53.8869 -0.63508606 106.11316 -186.18263 159.16974 -186.81772c53.05658 -0.63508224 132.64142 152.50601 159.16974 183.00722" fill-rule="evenodd"></path><path fill="#000000" fill-opacity="0.0" d="m643.1312 167.77428l1.0078735 185.54332" fill-rule="evenodd"></path><path stroke="#4dbeb1" stroke-width="3.0" stroke-linejoin="round" stroke-linecap="butt" d="m643.1312 167.77428l1.0078735 185.54332" fill-rule="evenodd"></path><path fill="#000000" fill-opacity="0.0" d="m326.43045 161.97113l-2.0472412 192.06299" fill-rule="evenodd"></path><path stroke="#4dbeb1" stroke-width="3.0" stroke-linejoin="round" stroke-linecap="butt" d="m326.43045 161.97113l-2.0472412 192.06299" fill-rule="evenodd"></path><path fill="#000000" fill-opacity="0.0" d="m-0.004834908 350.14435c28.187164 -30.50119 115.236115 -183.6423 169.12299 -183.00722c53.88687 0.63508606 102.79884 186.18263 154.19826 186.81773c51.399414 0.6350708 101.13992 -183.00723 154.19824 -183.00723c53.05829 0 110.26465 183.6423 164.15149 183.00723c53.8869 -0.6351013 106.11316 -186.18265 159.16974 -186.81773c53.05658 -0.63508606 132.64142 152.50603 159.16968 183.00722" fill-rule="evenodd"></path><path stroke="#fff389" stroke-width="3.0" stroke-linejoin="round" stroke-linecap="butt" d="m-0.004834908 350.14435c28.187164 -30.50119 115.236115 -183.6423 169.12299 -183.00722c53.88687 0.63508606 102.79884 186.18263 154.19826 186.81773c51.399414 0.6350708 101.13992 -183.00723 154.19824 -183.00723c53.05829 0 110.26465 183.6423 164.15149 183.00723c53.8869 -0.6351013 106.11316 -186.18265 159.16974 -186.81773c53.05658 -0.63508606 132.64142 152.50603 159.16968 183.00722" fill-rule="evenodd"></path><path fill="#000000" fill-opacity="0.0" d="m388.25778 85.23363l0 0c-10.588623 22.669533 -33.823303 37.278717 -59.946655 37.69246c-26.123352 0.41373444 -50.61151 -13.439621 -63.180725 -35.742386l60.276367 -30.20599z" fill-rule="evenodd"></path><path fill="#000000" fill-opacity="0.0" d="m388.25778 85.23363l0 0c-10.588623 22.669533 -33.823303 37.278717 -59.946655 37.69246c-26.123352 0.41373444 -50.61151 -13.439621 -63.180725 -35.742386" fill-rule="evenodd"></path><path stroke="#3f2d34" stroke-width="3.0" stroke-linejoin="round" stroke-linecap="butt" d="m388.25778 85.23363l0 0c-10.588623 22.669533 -33.823303 37.278717 -59.946655 37.69246c-26.123352 0.41373444 -50.61151 -13.439621 -63.180725 -35.742386" fill-rule="evenodd"></path><path fill="#4dbeb1" fill-opacity="0.6115" d="m350.2034 71.00449l0 0c13.072205 13.072189 12.994629 33.702347 -0.17321777 46.078743q-21.228546 19.95259 -23.977783 58.384506q-2.4597168 -38.570038 -23.534027 -59.64435l0 0c-13.072205 -13.072189 -12.994629 -33.702347 0.17321777 -46.078743l0 0c13.167877 -12.376396 34.439636 -11.812347 47.51181 1.2598419z" fill-rule="evenodd"></path><path stroke="#3f2d34" stroke-width="1.0" stroke-linejoin="round" stroke-linecap="butt" d="m350.2034 71.00449l0 0c13.072205 13.072189 12.994629 33.702347 -0.17321777 46.078743q-21.228546 19.95259 -23.977783 58.384506q-2.4597168 -38.570038 -23.534027 -59.64435l0 0c-13.072205 -13.072189 -12.994629 -33.702347 0.17321777 -46.078743l0 0c13.167877 -12.376396 34.439636 -11.812347 47.51181 1.2598419z" fill-rule="evenodd"></path><path fill="#4dbeb1" fill-opacity="0.6115" d="m347.60498 74.24938l0 0c11.419678 12.028496 11.165863 30.268486 -0.56692505 40.740158q-18.915009 16.881874 -21.686707 50.767693q-1.8243408 -34.19487 -20.234558 -53.586594l0 0c-11.419678 -12.028503 -11.165863 -30.268494 0.56692505 -40.740158l0 0c11.732788 -10.471664 30.501587 -9.209602 41.921265 2.818901z" fill-rule="evenodd"></path><path fill="#000000" fill-opacity="0.0" d="m264.85992 88.21052l0 0c10.660065 -22.739197 34.044617 -37.337837 60.27118 -37.62644c26.226562 -0.2885971 50.718414 13.783207 63.12509 36.268574l-60.578033 29.680748z" fill-rule="evenodd"></path><path fill="#000000" fill-opacity="0.0" d="m264.85992 88.21052l0 0c10.660065 -22.739197 34.044617 -37.337837 60.27118 -37.62644c26.226562 -0.2885971 50.718414 13.783207 63.12509 36.268574" fill-rule="evenodd"></path><path stroke="#3f2d34" stroke-width="3.0" stroke-linejoin="round" stroke-linecap="butt" d="m264.85992 88.21052l0 0c10.660065 -22.739197 34.044617 -37.337837 60.27118 -37.62644c26.226562 -0.2885971 50.718414 13.783207 63.12509 36.268574" fill-rule="evenodd"></path><path fill="#fff389" d="m305.96457 93.414696l0 0c0 -10.5412445 8.933136 -19.086609 19.952759 -19.086609l0 0c5.291809 0 10.366852 2.0109024 14.108734 5.5903397c3.7418518 3.5794296 5.8440247 8.434189 5.8440247 13.496269l0 0c0 10.541252 -8.9331665 19.086617 -19.952759 19.086617l0 0c-11.019623 0 -19.952759 -8.545364 -19.952759 -19.086617zm3.9264832 0l0 0c0 8.372704 7.1752014 15.160118 16.026276 15.160118c8.851044 0 16.026245 -6.7874146 16.026245 -15.160118l0 0c0 -8.372696 -7.1752014 -15.16011 -16.026245 -15.16011l0 0c-8.851074 0 -16.026276 6.7874146 -16.026276 15.16011z" fill-rule="evenodd"></path><path fill="#fff389" d="m312.7047 93.414696l0 0c0 -6.8274536 5.915497 -12.3622055 13.212616 -12.3622055l0 0c7.297119 0 13.212585 5.534752 13.212585 12.3622055l0 0c0 6.8274612 -5.9154663 12.3622055 -13.212585 12.3622055l0 0c-7.297119 0 -13.212616 -5.5347443 -13.212616 -12.3622055zm0.9385376 0l0 0c0 6.30912 5.4953003 11.423668 12.274078 11.423668c6.778778 0 12.274048 -5.1145477 12.274048 -11.423668l0 0c0 -6.3091125 -5.49527 -11.42366 -12.274048 -11.42366l0 0c-6.778778 0 -12.274078 5.1145477 -12.274078 11.42366z" fill-rule="evenodd"></path><path fill="#fff389" d="m317.3189 93.414696l0 0c0 -4.418274 3.84964 -8.0 8.598419 -8.0l0 0c4.7487793 0 8.598419 3.581726 8.598419 8.0l0 0c0 4.4182816 -3.84964 8.0 -8.598419 8.0l0 0c-4.7487793 0 -8.598419 -3.5817184 -8.598419 -8.0zm0.60736084 0l0 0c0 4.0828476 3.5776978 7.392639 7.9910583 7.392639c4.41333 0 7.9910583 -3.3097916 7.9910583 -7.392639l0 0c0 -4.08284 -3.5777283 -7.392639 -7.9910583 -7.392639l0 0c-4.4133606 0 -7.9910583 3.3097992 -7.9910583 7.392639z" fill-rule="evenodd"></path><path fill="#fff389" d="m320.78348 93.414696l0 0c0 -2.6266098 2.2984924 -4.755905 5.13385 -4.755905l0 0c2.8353577 0 5.13385 2.1292953 5.13385 4.755905l0 0c0 2.6266174 -2.2984924 4.755905 -5.13385 4.755905l0 0c-2.8353577 0 -5.13385 -2.1292877 -5.13385 -4.755905zm0.36105347 0l0 0c0 2.4272003 2.1368408 4.3948364 4.7727966 4.3948364c2.6359253 0 4.7727966 -1.9676361 4.7727966 -4.3948364l0 0c0 -2.4272003 -2.1368713 -4.3948364 -4.7727966 -4.3948364l0 0c-2.6359558 0 -4.7727966 1.9676361 -4.7727966 4.3948364z" fill-rule="evenodd"></path><path fill="#000000" fill-opacity="0.0" d="m267.38452 89.317856l0 0c12.040802 -20.34816 34.515625 -32.832497 59.075928 -32.81556c24.560333 0.016933441 47.53647 12.532608 60.393707 32.897934l-59.057556 33.731735z" fill-rule="evenodd"></path><path fill="#000000" fill-opacity="0.0" d="m267.38452 89.317856l0 0c12.040802 -20.34816 34.515625 -32.832497 59.075928 -32.81556c24.560333 0.016933441 47.53647 12.532608 60.393707 32.897934" fill-rule="evenodd"></path><path stroke="#3f2d34" stroke-width="3.0" stroke-linejoin="round" stroke-linecap="butt" d="m267.38452 89.317856l0 0c12.040802 -20.34816 34.515625 -32.832497 59.075928 -32.81556c24.560333 0.016933441 47.53647 12.532608 60.393707 32.897934" fill-rule="evenodd"></path><path fill="#000000" fill-opacity="0.0" d="m705.5334 87.93967l0 0c-10.588623 22.669525 -33.823303 37.278717 -59.946655 37.69245c-26.123352 0.41374207 -50.61151 -13.439621 -63.180725 -35.74238l60.276367 -30.205994z" fill-rule="evenodd"></path><path fill="#000000" fill-opacity="0.0" d="m705.5334 87.93967l0 0c-10.588623 22.669525 -33.823303 37.278717 -59.946655 37.69245c-26.123352 0.41374207 -50.61151 -13.439621 -63.180725 -35.74238" fill-rule="evenodd"></path><path stroke="#3f2d34" stroke-width="3.0" stroke-linejoin="round" stroke-linecap="butt" d="m705.5334 87.93967l0 0c-10.588623 22.669525 -33.823303 37.278717 -59.946655 37.69245c-26.123352 0.41374207 -50.61151 -13.439621 -63.180725 -35.74238" fill-rule="evenodd"></path><path fill="#4dbeb1" fill-opacity="0.6115" d="m667.479 73.71053l0 0c13.072205 13.072189 12.994629 33.70234 -0.17321777 46.078735q-21.228577 19.952599 -23.977783 58.3845q-2.4597168 -38.570038 -23.534058 -59.64434l0 0c-13.072205 -13.072189 -12.994629 -33.70234 0.17321777 -46.078735l0 0c13.167908 -12.3764 34.439636 -11.812351 47.51184 1.2598419z" fill-rule="evenodd"></path><path stroke="#3f2d34" stroke-width="1.0" stroke-linejoin="round" stroke-linecap="butt" d="m667.479 73.71053l0 0c13.072205 13.072189 12.994629 33.70234 -0.17321777 46.078735q-21.228577 19.952599 -23.977783 58.3845q-2.4597168 -38.570038 -23.534058 -59.64434l0 0c-13.072205 -13.072189 -12.994629 -33.70234 0.17321777 -46.078735l0 0c13.167908 -12.3764 34.439636 -11.812351 47.51184 1.2598419z" fill-rule="evenodd"></path><path fill="#4dbeb1" fill-opacity="0.6115" d="m664.88055 76.955414l0 0c11.419678 12.028503 11.165894 30.268494 -0.56689453 40.740158q-18.91504 16.881882 -21.686707 50.7677q-1.8243408 -34.19487 -20.234558 -53.586594l0 0c-11.419678 -12.028503 -11.165894 -30.268494 0.56689453 -40.740158l0 0c11.732788 -10.471668 30.501587 -9.209602 41.921265 2.8188934z" fill-rule="evenodd"></path><path fill="#000000" fill-opacity="0.0" d="m582.1355 90.91655l0 0c10.660095 -22.73919 34.044617 -37.337833 60.27118 -37.62643c26.226562 -0.28860092 50.718445 13.783207 63.125122 36.268574l-60.578064 29.680748z" fill-rule="evenodd"></path><path fill="#000000" fill-opacity="0.0" d="m582.1355 90.91655l0 0c10.660095 -22.73919 34.044617 -37.337833 60.27118 -37.62643c26.226562 -0.28860092 50.718445 13.783207 63.125122 36.268574" fill-rule="evenodd"></path><path stroke="#3f2d34" stroke-width="3.0" stroke-linejoin="round" stroke-linecap="butt" d="m582.1355 90.91655l0 0c10.660095 -22.73919 34.044617 -37.337833 60.27118 -37.62643c26.226562 -0.28860092 50.718445 13.783207 63.125122 36.268574" fill-rule="evenodd"></path><path fill="#fff389" d="m623.2402 96.120735l0 0c0 -10.5412445 8.9331665 -19.086617 19.952759 -19.086617l0 0c5.291809 0 10.366821 2.01091 14.108704 5.5903397c3.7418823 3.5794373 5.844055 8.434189 5.844055 13.496277l0 0c0 10.5412445 -8.9331665 19.086617 -19.952759 19.086617l0 0c-11.019592 0 -19.952759 -8.545372 -19.952759 -19.086617zm3.9264526 0l0 0c0 8.372704 7.175232 15.160118 16.026306 15.160118c8.851013 0 16.026245 -6.7874146 16.026245 -15.160118l0 0c0 -8.372704 -7.175232 -15.160118 -16.026245 -15.160118l0 0c-8.851074 0 -16.026306 6.7874146 -16.026306 15.160118z" fill-rule="evenodd"></path><path fill="#fff389" d="m629.9803 96.120735l0 0c0 -6.8274536 5.9155273 -12.3622055 13.2126465 -12.3622055l0 0c7.297119 0 13.212585 5.534752 13.212585 12.3622055l0 0c0 6.8274536 -5.9154663 12.3622055 -13.212585 12.3622055l0 0c-7.297119 0 -13.2126465 -5.534752 -13.2126465 -12.3622055zm0.9385376 0l0 0c0 6.3091125 5.4953003 11.423668 12.274109 11.423668c6.7787476 0 12.274048 -5.1145554 12.274048 -11.423668l0 0c0 -6.30912 -5.4953003 -11.423668 -12.274048 -11.423668l0 0c-6.7788086 0 -12.274109 5.1145477 -12.274109 11.423668z" fill-rule="evenodd"></path><path fill="#fff389" d="m634.5945 96.120735l0 0c0 -4.4182816 3.8496704 -8.0 8.59845 -8.0l0 0c4.7487793 0 8.598389 3.5817184 8.598389 8.0l0 0c0 4.418274 -3.8496094 8.0 -8.598389 8.0l0 0c-4.7487793 0 -8.59845 -3.581726 -8.59845 -8.0zm0.60736084 0l0 0c0 4.08284 3.5776978 7.392639 7.991089 7.392639c4.41333 0 7.991028 -3.3097992 7.991028 -7.392639l0 0c0 -4.08284 -3.5776978 -7.392639 -7.991028 -7.392639l0 0c-4.413391 0 -7.991089 3.3097992 -7.991089 7.392639z" fill-rule="evenodd"></path><path fill="#fff389" d="m638.0591 96.120735l0 0c0 -2.6266174 2.298462 -4.755905 5.13385 -4.755905l0 0c2.8353271 0 5.13385 2.1292877 5.13385 4.755905l0 0c0 2.6266174 -2.298523 4.755905 -5.13385 4.755905l0 0c-2.8353882 0 -5.13385 -2.1292877 -5.13385 -4.755905zm0.36102295 0l0 0c0 2.4272003 2.1368408 4.3948364 4.772827 4.3948364c2.6359253 0 4.772766 -1.9676361 4.772766 -4.3948364l0 0c0 -2.4272003 -2.1368408 -4.3948364 -4.772766 -4.3948364l0 0c-2.6359863 0 -4.772827 1.9676361 -4.772827 4.3948364z" fill-rule="evenodd"></path><path fill="#000000" fill-opacity="0.0" d="m584.6601 92.02389l0 0c12.0408325 -20.348152 34.515625 -32.832493 59.075928 -32.815556c24.560364 0.016933441 47.5365 12.532612 60.393738 32.897938l-59.057556 33.731728z" fill-rule="evenodd"></path><path fill="#000000" fill-opacity="0.0" d="m584.6601 92.02389l0 0c12.0408325 -20.348152 34.515625 -32.832493 59.075928 -32.815556c24.560364 0.016933441 47.5365 12.532612 60.393738 32.897938" fill-rule="evenodd"></path><path stroke="#3f2d34" stroke-width="3.0" stroke-linejoin="round" stroke-linecap="butt" d="m584.6601 92.02389l0 0c12.0408325 -20.348152 34.515625 -32.832493 59.075928 -32.815556c24.560364 0.016933441 47.5365 12.532612 60.393738 32.897938" fill-rule="evenodd"></path></g></svg>

