<?xml version="1.0" standalone="yes"?>

<svg version="1.1" viewBox="0.0 0.0 139.54330708661416 141.3044619422572" fill="none" stroke="none" stroke-linecap="square" stroke-miterlimit="10" xmlns="http://www.w3.org/2000/svg" xmlns:xlink="http://www.w3.org/1999/xlink"><clipPath id="p.0"><path d="m0 0l139.5433 0l0 141.30446l-139.5433 0l0 -141.30446z" clip-rule="nonzero"></path></clipPath><g clip-path="url(#p.0)"><path fill="#000000" fill-opacity="0.0" d="m0 0l139.5433 0l0 141.30446l-139.5433 0z" fill-rule="evenodd"></path><path fill="#000000" fill-opacity="0.0" d="m92.67719 38.5945l0 0c12.6721115 12.672108 12.460594 32.80167 -0.472435 44.96063q-20.849968 19.60205 -23.786171 57.11786q-2.1467133 -37.61767 -22.576035 -58.04699l0 0c-12.6721115 -12.6721115 -12.46059 -32.80167 0.4724388 -44.960632l0 0c12.933029 -12.158962 33.690098 -11.742973 46.3622 0.92913437z" fill-rule="evenodd"></path><path stroke="#ffffff" stroke-width="1.0" stroke-linejoin="round" stroke-linecap="butt" d="m92.67719 38.5945l0 0c12.6721115 12.672108 12.460594 32.80167 -0.472435 44.96063q-20.849968 19.60205 -23.786171 57.11786q-2.1467133 -37.61767 -22.576035 -58.04699l0 0c-12.6721115 -12.6721115 -12.46059 -32.80167 0.4724388 -44.960632l0 0c12.933029 -12.158962 33.690098 -11.742973 46.3622 0.92913437z" fill-rule="evenodd"></path><path fill="#000000" fill-opacity="0.0" d="m16.29521 30.643196l0 0c12.69198 -14.929357 31.76893 -23.52977 52.100853 -23.488497c20.331917 0.041274548 39.83175 8.719999 53.255775 23.702372l-51.64167 42.251137z" fill-rule="evenodd"></path><path fill="#000000" fill-opacity="0.0" d="m16.29521 30.643196l0 0c12.69198 -14.929357 31.76893 -23.52977 52.100853 -23.488497c20.331917 0.041274548 39.83175 8.719999 53.255775 23.702372" fill-rule="evenodd"></path><path stroke="#3f2d34" stroke-width="3.0" stroke-linejoin="round" stroke-linecap="butt" d="m16.29521 30.643196l0 0c12.69198 -14.929357 31.76893 -23.52977 52.100853 -23.488497c20.331917 0.041274548 39.83175 8.719999 53.255775 23.702372" fill-rule="evenodd"></path><path fill="#000000" fill-opacity="0.0" d="m17.81752 49.56708l0 0c12.69198 -14.929359 31.768932 -23.529772 52.100853 -23.488497c20.331917 0.041273117 39.83175 8.719999 53.255775 23.702372l-51.64167 42.251133z" fill-rule="evenodd"></path><path fill="#000000" fill-opacity="0.0" d="m17.81752 49.56708l0 0c12.69198 -14.929359 31.768932 -23.529772 52.100853 -23.488497c20.331917 0.041273117 39.83175 8.719999 53.255775 23.702372" fill-rule="evenodd"></path><path stroke="#3f2d34" stroke-width="3.0" stroke-linejoin="round" stroke-linecap="butt" d="m17.81752 49.56708l0 0c12.69198 -14.929359 31.768932 -23.529772 52.100853 -23.488497c20.331917 0.041273117 39.83175 8.719999 53.255775 23.702372" fill-rule="evenodd"></path><path fill="#000000" fill-opacity="0.0" d="m122.23329 54.62052l0 0c-12.25975 15.072693 -30.963722 23.857445 -51.106537 24.003365c-20.142822 0.1459198 -39.66822 -8.361877 -53.351013 -23.246635l50.198967 -43.10921z" fill-rule="evenodd"></path><path fill="#000000" fill-opacity="0.0" d="m122.23329 54.62052l0 0c-12.25975 15.072693 -30.963722 23.857445 -51.106537 24.003365c-20.142822 0.1459198 -39.66822 -8.361877 -53.351013 -23.246635" fill-rule="evenodd"></path><path stroke="#3f2d34" stroke-width="3.0" stroke-linejoin="round" stroke-linecap="butt" d="m122.23329 54.62052l0 0c-12.25975 15.072693 -30.963722 23.857445 -51.106537 24.003365c-20.142822 0.1459198 -39.66822 -8.361877 -53.351013 -23.246635" fill-rule="evenodd"></path><path fill="#000000" fill-opacity="0.0" d="m91.475006 37.19914l0 0c11.297913 11.898041 10.846672 30.116879 -1.0078735 40.692913q-19.111305 17.05014 -22.25145 50.919792q-1.4558868 -34.132088 -19.669815 -53.31349l0 0c-11.29792 -11.898041 -10.84668 -30.116879 1.0078735 -40.692913l0 0c11.854553 -10.576036 30.623344 -9.504339 41.921265 2.3936996z" fill-rule="evenodd"></path><path stroke="#ffffff" stroke-width="1.0" stroke-linejoin="round" stroke-linecap="butt" d="m91.475006 37.19914l0 0c11.297913 11.898041 10.846672 30.116879 -1.0078735 40.692913q-19.111305 17.05014 -22.25145 50.919792q-1.4558868 -34.132088 -19.669815 -53.31349l0 0c-11.29792 -11.898041 -10.84668 -30.116879 1.0078735 -40.692913l0 0c11.854553 -10.576036 30.623344 -9.504339 41.921265 2.3936996z" fill-rule="evenodd"></path><path fill="#fff389" d="m52.15223 56.349083l0 0c0 -9.497559 7.9954224 -17.196854 17.858269 -17.196854l0 0c4.736305 0 9.2786255 1.8118057 12.627701 5.0368423c3.3490753 3.2250366 5.230568 7.599121 5.230568 12.160011l0 0c0 9.497559 -7.9954224 17.196846 -17.858269 17.196846l0 0c-9.862846 0 -17.858269 -7.6992874 -17.858269 -17.196846z" fill-rule="evenodd"></path></g></svg>

