<?xml version="1.0" standalone="yes"?>

<svg version="1.1" viewBox="0.0 0.0 371.65616797900265 325.0288713910761" fill="none" stroke="none" stroke-linecap="square" stroke-miterlimit="10" xmlns="http://www.w3.org/2000/svg" xmlns:xlink="http://www.w3.org/1999/xlink"><clipPath id="p.0"><path d="m0 0l371.65616 0l0 325.02887l-371.65616 0l0 -325.02887z" clip-rule="nonzero"></path></clipPath><g clip-path="url(#p.0)"><path fill="#000000" fill-opacity="0.0" d="m0 0l371.65616 0l0 325.02887l-371.65616 0z" fill-rule="evenodd"></path><path fill="#85d2ca" d="m249.70604 38.527245l0 0c36.65953 36.65953 37.69597 95.05993 2.3149567 130.44095q-52.95671 52.95671 -62.55069 149.27614q-13.019913 -96.72075 -67.89025 -151.5911l0 0c-36.65953 -36.65953 -37.695976 -95.05993 -2.3149643 -130.44095l0 0c35.381012 -35.381012 93.78142 -34.34457 130.44095 2.3149605z" fill-rule="evenodd"></path><path stroke="#741b47" stroke-width="8.0" stroke-linejoin="round" stroke-linecap="butt" d="m249.70604 38.527245l0 0c36.65953 36.65953 37.69597 95.05993 2.3149567 130.44095q-52.95671 52.95671 -62.55069 149.27614q-13.019913 -96.72075 -67.89025 -151.5911l0 0c-36.65953 -36.65953 -37.695976 -95.05993 -2.3149643 -130.44095l0 0c35.381012 -35.381012 93.78142 -34.34457 130.44095 2.3149605z" fill-rule="evenodd"></path></g></svg>

