<?xml version="1.0" standalone="yes"?>

<svg version="1.1" viewBox="0.0 0.0 260.3280839895013 285.04461942257217" fill="none" stroke="none" stroke-linecap="square" stroke-miterlimit="10" xmlns="http://www.w3.org/2000/svg" xmlns:xlink="http://www.w3.org/1999/xlink"><clipPath id="p.0"><path d="m0 0l260.3281 0l0 285.04462l-260.3281 0l0 -285.04462z" clip-rule="nonzero"></path></clipPath><g clip-path="url(#p.0)"><path fill="#000000" fill-opacity="0.0" d="m0 0l260.3281 0l0 285.04462l-260.3281 0z" fill-rule="evenodd"></path><path fill="#688bc0" d="m210.99843 39.837315l0 0c44.26976 43.860973 43.966583 115.946655 -0.6771698 161.00787q-40.417313 40.795288 -80.83464 81.590546q-40.078743 -39.70865 -80.157486 -79.41731l0 0c-44.269753 -43.860977 -43.966576 -115.946655 0.677166 -161.00787l0 0c44.643745 -45.06122 116.72237 -46.034206 160.99213 -2.1732292z" fill-rule="evenodd"></path><path stroke="#688bc0" stroke-width="3.0" stroke-linejoin="round" stroke-linecap="butt" d="m210.99843 39.837315l0 0c44.26976 43.860973 43.966583 115.946655 -0.6771698 161.00787q-40.417313 40.795288 -80.83464 81.590546q-40.078743 -39.70865 -80.157486 -79.41731l0 0c-44.269753 -43.860977 -43.966576 -115.946655 0.677166 -161.00787l0 0c44.643745 -45.06122 116.72237 -46.034206 160.99213 -2.1732292z" fill-rule="evenodd"></path></g></svg>

